<svg width="56" height="58" viewBox="0 0 56 58" fill="none" xmlns="http://www.w3.org/2000/svg">
<path d="M4.99536 4H51.183V35.8206L28.6024 52L4.99536 35.8206V4Z" fill="#EDBF4A" stroke="#EDBF4A"/>
<path d="M11.1541 34.3548V27H45.025V34.3548L28.6027 46L11.1541 34.3548Z" fill="white" stroke="white"/>
<path d="M1.91652 0.999998L54.2625 1L54.2624 37.8987L28.5487 56L1.91652 37.8987L1.91652 0.999998Z" stroke="#434344" stroke-width="2"/>
<path d="M19.4886 19.054C18.8646 19.054 18.3006 18.916 17.7966 18.64C17.2986 18.364 16.9056 17.983 16.6176 17.497C16.3356 17.005 16.1946 16.456 16.1946 15.85C16.1946 15.244 16.3356 14.698 16.6176 14.212C16.9056 13.72 17.3016 13.336 17.8056 13.06C18.3096 12.784 18.8736 12.646 19.4976 12.646C19.9656 12.646 20.3976 12.724 20.7936 12.88C21.1896 13.036 21.5256 13.264 21.8016 13.564L21.3786 13.987C20.8866 13.489 20.2656 13.24 19.5156 13.24C19.0176 13.24 18.5646 13.354 18.1566 13.582C17.7486 13.81 17.4276 14.122 17.1936 14.518C16.9656 14.914 16.8516 15.358 16.8516 15.85C16.8516 16.342 16.9656 16.786 17.1936 17.182C17.4276 17.578 17.7486 17.89 18.1566 18.118C18.5646 18.346 19.0176 18.46 19.5156 18.46C20.2716 18.46 20.8926 18.208 21.3786 17.704L21.8016 18.127C21.5256 18.427 21.1866 18.658 20.7846 18.82C20.3886 18.976 19.9566 19.054 19.4886 19.054ZM24.6721 14.23C25.2901 14.23 25.7641 14.386 26.0941 14.698C26.4241 15.004 26.5891 15.46 26.5891 16.066V19H25.9771V18.262C25.8331 18.508 25.6201 18.7 25.3381 18.838C25.0621 18.976 24.7321 19.045 24.3481 19.045C23.8201 19.045 23.4001 18.919 23.0881 18.667C22.7761 18.415 22.6201 18.082 22.6201 17.668C22.6201 17.266 22.7641 16.942 23.0521 16.696C23.3461 16.45 23.8111 16.327 24.4471 16.327H25.9501V16.039C25.9501 15.631 25.8361 15.322 25.6081 15.112C25.3801 14.896 25.0471 14.788 24.6091 14.788C24.3091 14.788 24.0211 14.839 23.7451 14.941C23.4691 15.037 23.2321 15.172 23.0341 15.346L22.7461 14.869C22.9861 14.665 23.2741 14.509 23.6101 14.401C23.9461 14.287 24.3001 14.23 24.6721 14.23ZM24.4471 18.541C24.8071 18.541 25.1161 18.46 25.3741 18.298C25.6321 18.13 25.8241 17.89 25.9501 17.578V16.804H24.4651C23.6551 16.804 23.2501 17.086 23.2501 17.65C23.2501 17.926 23.3551 18.145 23.5651 18.307C23.7751 18.463 24.0691 18.541 24.4471 18.541ZM28.9367 15.193C29.0867 14.875 29.3087 14.635 29.6027 14.473C29.9027 14.311 30.2717 14.23 30.7097 14.23V14.851L30.5567 14.842C30.0587 14.842 29.6687 14.995 29.3867 15.301C29.1047 15.607 28.9637 16.036 28.9637 16.588V19H28.3247V14.266H28.9367V15.193ZM34.3056 14.23C34.7497 14.23 35.1517 14.332 35.5116 14.536C35.8716 14.734 36.1537 15.016 36.3577 15.382C36.5617 15.748 36.6637 16.165 36.6637 16.633C36.6637 17.101 36.5617 17.518 36.3577 17.884C36.1537 18.25 35.8716 18.535 35.5116 18.739C35.1517 18.943 34.7497 19.045 34.3056 19.045C33.9096 19.045 33.5527 18.961 33.2346 18.793C32.9226 18.625 32.6706 18.382 32.4786 18.064V19H31.8666V12.322H32.5056V15.166C32.7036 14.86 32.9556 14.629 33.2616 14.473C33.5737 14.311 33.9216 14.23 34.3056 14.23ZM34.2606 18.478C34.5906 18.478 34.8907 18.403 35.1607 18.253C35.4307 18.097 35.6407 17.878 35.7907 17.596C35.9467 17.314 36.0247 16.993 36.0247 16.633C36.0247 16.273 35.9467 15.952 35.7907 15.67C35.6407 15.388 35.4307 15.172 35.1607 15.022C34.8907 14.866 34.5906 14.788 34.2606 14.788C33.9246 14.788 33.6216 14.866 33.3516 15.022C33.0876 15.172 32.8776 15.388 32.7216 15.67C32.5716 15.952 32.4966 16.273 32.4966 16.633C32.4966 16.993 32.5716 17.314 32.7216 17.596C32.8776 17.878 33.0876 18.097 33.3516 18.253C33.6216 18.403 33.9246 18.478 34.2606 18.478ZM39.2353 19.045C38.8513 19.045 38.4823 18.991 38.1283 18.883C37.7803 18.769 37.5073 18.628 37.3093 18.46L37.5973 17.956C37.7953 18.112 38.0443 18.241 38.3443 18.343C38.6443 18.439 38.9563 18.487 39.2803 18.487C39.7123 18.487 40.0303 18.421 40.2343 18.289C40.4443 18.151 40.5493 17.959 40.5493 17.713C40.5493 17.539 40.4923 17.404 40.3783 17.308C40.2643 17.206 40.1203 17.131 39.9463 17.083C39.7723 17.029 39.5413 16.978 39.2533 16.93C38.8693 16.858 38.5603 16.786 38.3263 16.714C38.0923 16.636 37.8913 16.507 37.7233 16.327C37.5613 16.147 37.4803 15.898 37.4803 15.58C37.4803 15.184 37.6453 14.86 37.9753 14.608C38.3053 14.356 38.7643 14.23 39.3523 14.23C39.6583 14.23 39.9643 14.272 40.2703 14.356C40.5763 14.434 40.8283 14.539 41.0263 14.671L40.7473 15.184C40.3573 14.914 39.8923 14.779 39.3523 14.779C38.9443 14.779 38.6353 14.851 38.4253 14.995C38.2213 15.139 38.1193 15.328 38.1193 15.562C38.1193 15.742 38.1763 15.886 38.2903 15.994C38.4103 16.102 38.5573 16.183 38.7313 16.237C38.9053 16.285 39.1453 16.336 39.4513 16.39C39.8293 16.462 40.1323 16.534 40.3603 16.606C40.5883 16.678 40.7833 16.801 40.9453 16.975C41.1073 17.149 41.1883 17.389 41.1883 17.695C41.1883 18.109 41.0143 18.439 40.6663 18.685C40.3243 18.925 39.8473 19.045 39.2353 19.045Z" fill="black"/>
<path d="M30.2785 32.266V36.424C30.2785 37.228 30.0805 37.822 29.6845 38.206C29.2945 38.596 28.7035 38.791 27.9115 38.791C27.4735 38.791 27.0565 38.725 26.6605 38.593C26.2705 38.467 25.9525 38.29 25.7065 38.062L26.0305 37.576C26.2585 37.78 26.5345 37.939 26.8585 38.053C27.1885 38.167 27.5335 38.224 27.8935 38.224C28.4935 38.224 28.9345 38.083 29.2165 37.801C29.4985 37.525 29.6395 37.093 29.6395 36.505V35.902C29.4415 36.202 29.1805 36.43 28.8565 36.586C28.5385 36.742 28.1845 36.82 27.7945 36.82C27.3505 36.82 26.9455 36.724 26.5795 36.532C26.2195 36.334 25.9345 36.061 25.7245 35.713C25.5205 35.359 25.4185 34.96 25.4185 34.516C25.4185 34.072 25.5205 33.676 25.7245 33.328C25.9345 32.98 26.2195 32.71 26.5795 32.518C26.9395 32.326 27.3445 32.23 27.7945 32.23C28.1965 32.23 28.5595 32.311 28.8835 32.473C29.2075 32.635 29.4685 32.869 29.6665 33.175V32.266H30.2785ZM27.8575 36.253C28.1995 36.253 28.5085 36.181 28.7845 36.037C29.0605 35.887 29.2735 35.68 29.4235 35.416C29.5795 35.152 29.6575 34.852 29.6575 34.516C29.6575 34.18 29.5795 33.883 29.4235 33.625C29.2735 33.361 29.0605 33.157 28.7845 33.013C28.5145 32.863 28.2055 32.788 27.8575 32.788C27.5155 32.788 27.2065 32.86 26.9305 33.004C26.6605 33.148 26.4475 33.352 26.2915 33.616C26.1415 33.88 26.0665 34.18 26.0665 34.516C26.0665 34.852 26.1415 35.152 26.2915 35.416C26.4475 35.68 26.6605 35.887 26.9305 36.037C27.2065 36.181 27.5155 36.253 27.8575 36.253Z" fill="black"/>
</svg>
