<svg width="56" height="58" viewBox="0 0 56 58" fill="none" xmlns="http://www.w3.org/2000/svg">
<path d="M4.74316 4H50.9308V35.8206L28.3502 52L4.74316 35.8206V4Z" fill="#F06E48"/>
<path d="M10.9014 34.3548V27H44.7723V34.3548L28.35 46L10.9014 34.3548Z" fill="white" stroke="white"/>
<path d="M1.66408 0.999998L54.01 1L54.01 37.8987L28.2962 56L1.66408 37.8987L1.66408 0.999998Z" stroke="#434344" stroke-width="2"/>
<path d="M23.3218 13.276V15.751H26.5798V16.327H23.3218V19H22.6558V12.7H26.9758V13.276H23.3218ZM29.6788 14.23C30.2968 14.23 30.7708 14.386 31.1008 14.698C31.4308 15.004 31.5958 15.46 31.5958 16.066V19H30.9838V18.262C30.8398 18.508 30.6268 18.7 30.3448 18.838C30.0688 18.976 29.7388 19.045 29.3548 19.045C28.8268 19.045 28.4068 18.919 28.0948 18.667C27.7828 18.415 27.6268 18.082 27.6268 17.668C27.6268 17.266 27.7708 16.942 28.0588 16.696C28.3528 16.45 28.8178 16.327 29.4538 16.327H30.9568V16.039C30.9568 15.631 30.8428 15.322 30.6148 15.112C30.3868 14.896 30.0538 14.788 29.6158 14.788C29.3158 14.788 29.0278 14.839 28.7518 14.941C28.4758 15.037 28.2388 15.172 28.0408 15.346L27.7528 14.869C27.9928 14.665 28.2808 14.509 28.6168 14.401C28.9528 14.287 29.3068 14.23 29.6788 14.23ZM29.4538 18.541C29.8138 18.541 30.1228 18.46 30.3808 18.298C30.6388 18.13 30.8308 17.89 30.9568 17.578V16.804H29.4718C28.6618 16.804 28.2568 17.086 28.2568 17.65C28.2568 17.926 28.3618 18.145 28.5718 18.307C28.7818 18.463 29.0758 18.541 29.4538 18.541ZM35.8244 18.712C35.7044 18.82 35.5544 18.904 35.3744 18.964C35.2004 19.018 35.0174 19.045 34.8254 19.045C34.3814 19.045 34.0394 18.925 33.7994 18.685C33.5594 18.445 33.4394 18.106 33.4394 17.668V14.806H32.5934V14.266H33.4394V13.231H34.0784V14.266H35.5184V14.806H34.0784V17.632C34.0784 17.914 34.1474 18.13 34.2854 18.28C34.4294 18.424 34.6334 18.496 34.8974 18.496C35.0294 18.496 35.1554 18.475 35.2754 18.433C35.4014 18.391 35.5094 18.331 35.5994 18.253L35.8244 18.712Z" fill="black"/>
<path d="M30.026 31.266V35.424C30.026 36.228 29.828 36.822 29.432 37.206C29.042 37.596 28.451 37.791 27.659 37.791C27.221 37.791 26.804 37.725 26.408 37.593C26.018 37.467 25.7 37.29 25.454 37.062L25.778 36.576C26.006 36.78 26.282 36.939 26.606 37.053C26.936 37.167 27.281 37.224 27.641 37.224C28.241 37.224 28.682 37.083 28.964 36.801C29.246 36.525 29.387 36.093 29.387 35.505V34.902C29.189 35.202 28.928 35.43 28.604 35.586C28.286 35.742 27.932 35.82 27.542 35.82C27.098 35.82 26.693 35.724 26.327 35.532C25.967 35.334 25.682 35.061 25.472 34.713C25.268 34.359 25.166 33.96 25.166 33.516C25.166 33.072 25.268 32.676 25.472 32.328C25.682 31.98 25.967 31.71 26.327 31.518C26.687 31.326 27.092 31.23 27.542 31.23C27.944 31.23 28.307 31.311 28.631 31.473C28.955 31.635 29.216 31.869 29.414 32.175V31.266H30.026ZM27.605 35.253C27.947 35.253 28.256 35.181 28.532 35.037C28.808 34.887 29.021 34.68 29.171 34.416C29.327 34.152 29.405 33.852 29.405 33.516C29.405 33.18 29.327 32.883 29.171 32.625C29.021 32.361 28.808 32.157 28.532 32.013C28.262 31.863 27.953 31.788 27.605 31.788C27.263 31.788 26.954 31.86 26.678 32.004C26.408 32.148 26.195 32.352 26.039 32.616C25.889 32.88 25.814 33.18 25.814 33.516C25.814 33.852 25.889 34.152 26.039 34.416C26.195 34.68 26.408 34.887 26.678 35.037C26.954 35.181 27.263 35.253 27.605 35.253Z" fill="black"/>
</svg>
