<svg width="55" height="58" viewBox="0 0 55 58" fill="none" xmlns="http://www.w3.org/2000/svg">
<path d="M4.14819 4H50.3358V35.8206L27.7552 52L4.14819 35.8206V4Z" fill="#7D7E81"/>
<path d="M10.3066 34.3548V27H44.1775V34.3548L27.7553 46L10.3066 34.3548Z" fill="white" stroke="white"/>
<path d="M1.06936 0.999998L53.4153 1L53.4153 37.8987L27.7015 56L1.06935 37.8987L1.06936 0.999998Z" stroke="#434344" stroke-width="2"/>
<path d="M13.737 19.054C13.113 19.054 12.549 18.916 12.045 18.64C11.547 18.364 11.154 17.983 10.866 17.497C10.584 17.005 10.443 16.456 10.443 15.85C10.443 15.244 10.584 14.698 10.866 14.212C11.154 13.72 11.55 13.336 12.054 13.06C12.558 12.784 13.122 12.646 13.746 12.646C14.214 12.646 14.646 12.724 15.042 12.88C15.438 13.036 15.774 13.264 16.05 13.564L15.627 13.987C15.135 13.489 14.514 13.24 13.764 13.24C13.266 13.24 12.813 13.354 12.405 13.582C11.997 13.81 11.676 14.122 11.442 14.518C11.214 14.914 11.1 15.358 11.1 15.85C11.1 16.342 11.214 16.786 11.442 17.182C11.676 17.578 11.997 17.89 12.405 18.118C12.813 18.346 13.266 18.46 13.764 18.46C14.52 18.46 15.141 18.208 15.627 17.704L16.05 18.127C15.774 18.427 15.435 18.658 15.033 18.82C14.637 18.976 14.205 19.054 13.737 19.054ZM18.9205 14.23C19.5385 14.23 20.0125 14.386 20.3425 14.698C20.6725 15.004 20.8375 15.46 20.8375 16.066V19H20.2255V18.262C20.0815 18.508 19.8685 18.7 19.5865 18.838C19.3105 18.976 18.9805 19.045 18.5965 19.045C18.0685 19.045 17.6485 18.919 17.3365 18.667C17.0245 18.415 16.8685 18.082 16.8685 17.668C16.8685 17.266 17.0125 16.942 17.3005 16.696C17.5945 16.45 18.0595 16.327 18.6955 16.327H20.1985V16.039C20.1985 15.631 20.0845 15.322 19.8565 15.112C19.6285 14.896 19.2955 14.788 18.8575 14.788C18.5575 14.788 18.2695 14.839 17.9935 14.941C17.7175 15.037 17.4805 15.172 17.2825 15.346L16.9945 14.869C17.2345 14.665 17.5225 14.509 17.8585 14.401C18.1945 14.287 18.5485 14.23 18.9205 14.23ZM18.6955 18.541C19.0555 18.541 19.3645 18.46 19.6225 18.298C19.8805 18.13 20.0725 17.89 20.1985 17.578V16.804H18.7135C17.9035 16.804 17.4985 17.086 17.4985 17.65C17.4985 17.926 17.6035 18.145 17.8135 18.307C18.0235 18.463 18.3175 18.541 18.6955 18.541ZM22.5731 12.322H23.2121V19H22.5731V12.322ZM26.9251 19.045C26.4691 19.045 26.0581 18.943 25.6921 18.739C25.3261 18.529 25.0381 18.241 24.8281 17.875C24.6181 17.509 24.5131 17.095 24.5131 16.633C24.5131 16.171 24.6181 15.757 24.8281 15.391C25.0381 15.025 25.3261 14.74 25.6921 14.536C26.0581 14.332 26.4691 14.23 26.9251 14.23C27.3811 14.23 27.7921 14.332 28.1581 14.536C28.5241 14.74 28.8091 15.025 29.0131 15.391C29.2231 15.757 29.3281 16.171 29.3281 16.633C29.3281 17.095 29.2231 17.509 29.0131 17.875C28.8091 18.241 28.5241 18.529 28.1581 18.739C27.7921 18.943 27.3811 19.045 26.9251 19.045ZM26.9251 18.478C27.2611 18.478 27.5611 18.403 27.8251 18.253C28.0951 18.097 28.3051 17.878 28.4551 17.596C28.6051 17.314 28.6801 16.993 28.6801 16.633C28.6801 16.273 28.6051 15.952 28.4551 15.67C28.3051 15.388 28.0951 15.172 27.8251 15.022C27.5611 14.866 27.2611 14.788 26.9251 14.788C26.5891 14.788 26.2861 14.866 26.0161 15.022C25.7521 15.172 25.5421 15.388 25.3861 15.67C25.2361 15.952 25.1611 16.273 25.1611 16.633C25.1611 16.993 25.2361 17.314 25.3861 17.596C25.5421 17.878 25.7521 18.097 26.0161 18.253C26.2861 18.403 26.5891 18.478 26.9251 18.478ZM31.2446 15.193C31.3946 14.875 31.6166 14.635 31.9106 14.473C32.2106 14.311 32.5796 14.23 33.0176 14.23V14.851L32.8646 14.842C32.3666 14.842 31.9766 14.995 31.6946 15.301C31.4126 15.607 31.2716 16.036 31.2716 16.588V19H30.6326V14.266H31.2446V15.193ZM34.1746 14.266H34.8136V19H34.1746V14.266ZM34.4986 13.231C34.3666 13.231 34.2556 13.186 34.1656 13.096C34.0756 13.006 34.0306 12.898 34.0306 12.772C34.0306 12.652 34.0756 12.547 34.1656 12.457C34.2556 12.367 34.3666 12.322 34.4986 12.322C34.6306 12.322 34.7416 12.367 34.8316 12.457C34.9216 12.541 34.9666 12.643 34.9666 12.763C34.9666 12.895 34.9216 13.006 34.8316 13.096C34.7416 13.186 34.6306 13.231 34.4986 13.231ZM40.7136 16.831H36.7536C36.7896 17.323 36.9786 17.722 37.3206 18.028C37.6626 18.328 38.0946 18.478 38.6166 18.478C38.9106 18.478 39.1806 18.427 39.4266 18.325C39.6726 18.217 39.8856 18.061 40.0656 17.857L40.4256 18.271C40.2156 18.523 39.9516 18.715 39.6336 18.847C39.3216 18.979 38.9766 19.045 38.5986 19.045C38.1126 19.045 37.6806 18.943 37.3026 18.739C36.9306 18.529 36.6396 18.241 36.4296 17.875C36.2196 17.509 36.1146 17.095 36.1146 16.633C36.1146 16.171 36.2136 15.757 36.4116 15.391C36.6156 15.025 36.8916 14.74 37.2396 14.536C37.5936 14.332 37.9896 14.23 38.4276 14.23C38.8656 14.23 39.2586 14.332 39.6066 14.536C39.9546 14.74 40.2276 15.025 40.4256 15.391C40.6236 15.751 40.7226 16.165 40.7226 16.633L40.7136 16.831ZM38.4276 14.779C37.9716 14.779 37.5876 14.926 37.2756 15.22C36.9696 15.508 36.7956 15.886 36.7536 16.354H40.1106C40.0686 15.886 39.8916 15.508 39.5796 15.22C39.2736 14.926 38.8896 14.779 38.4276 14.779ZM43.2923 19.045C42.9083 19.045 42.5393 18.991 42.1853 18.883C41.8373 18.769 41.5643 18.628 41.3663 18.46L41.6543 17.956C41.8523 18.112 42.1013 18.241 42.4013 18.343C42.7013 18.439 43.0133 18.487 43.3373 18.487C43.7693 18.487 44.0873 18.421 44.2913 18.289C44.5013 18.151 44.6063 17.959 44.6063 17.713C44.6063 17.539 44.5493 17.404 44.4353 17.308C44.3213 17.206 44.1773 17.131 44.0033 17.083C43.8293 17.029 43.5983 16.978 43.3103 16.93C42.9263 16.858 42.6173 16.786 42.3833 16.714C42.1493 16.636 41.9483 16.507 41.7803 16.327C41.6183 16.147 41.5373 15.898 41.5373 15.58C41.5373 15.184 41.7023 14.86 42.0323 14.608C42.3623 14.356 42.8213 14.23 43.4093 14.23C43.7153 14.23 44.0213 14.272 44.3273 14.356C44.6333 14.434 44.8853 14.539 45.0833 14.671L44.8043 15.184C44.4143 14.914 43.9493 14.779 43.4093 14.779C43.0013 14.779 42.6923 14.851 42.4823 14.995C42.2783 15.139 42.1763 15.328 42.1763 15.562C42.1763 15.742 42.2333 15.886 42.3473 15.994C42.4673 16.102 42.6143 16.183 42.7883 16.237C42.9623 16.285 43.2023 16.336 43.5083 16.39C43.8863 16.462 44.1893 16.534 44.4173 16.606C44.6453 16.678 44.8403 16.801 45.0023 16.975C45.1643 17.149 45.2453 17.389 45.2453 17.695C45.2453 18.109 45.0713 18.439 44.7233 18.685C44.3813 18.925 43.9043 19.045 43.2923 19.045Z" fill="black"/>
<path d="M20.7334 33.039L19.4464 34.344V36H18.7804V29.7H19.4464V33.507L23.1454 29.7H23.9104L21.1834 32.553L24.0994 36H23.3074L20.7334 33.039ZM26.7861 36.045C26.3181 36.045 25.8981 35.943 25.5261 35.739C25.1601 35.535 24.8721 35.25 24.6621 34.884C24.4521 34.512 24.3471 34.095 24.3471 33.633C24.3471 33.171 24.4521 32.757 24.6621 32.391C24.8721 32.025 25.1601 31.74 25.5261 31.536C25.8981 31.332 26.3181 31.23 26.7861 31.23C27.1941 31.23 27.5571 31.311 27.8751 31.473C28.1991 31.629 28.4541 31.86 28.6401 32.166L28.1631 32.49C28.0071 32.256 27.8091 32.082 27.5691 31.968C27.3291 31.848 27.0681 31.788 26.7861 31.788C26.4441 31.788 26.1351 31.866 25.8591 32.022C25.5891 32.172 25.3761 32.388 25.2201 32.67C25.0701 32.952 24.9951 33.273 24.9951 33.633C24.9951 33.999 25.0701 34.323 25.2201 34.605C25.3761 34.881 25.5891 35.097 25.8591 35.253C26.1351 35.403 26.4441 35.478 26.7861 35.478C27.0681 35.478 27.3291 35.421 27.5691 35.307C27.8091 35.193 28.0071 35.019 28.1631 34.785L28.6401 35.109C28.4541 35.415 28.1991 35.649 27.8751 35.811C27.5511 35.967 27.1881 36.045 26.7861 36.045ZM31.5514 31.23C32.1694 31.23 32.6434 31.386 32.9734 31.698C33.3034 32.004 33.4684 32.46 33.4684 33.066V36H32.8564V35.262C32.7124 35.508 32.4994 35.7 32.2174 35.838C31.9414 35.976 31.6114 36.045 31.2274 36.045C30.6994 36.045 30.2794 35.919 29.9674 35.667C29.6554 35.415 29.4994 35.082 29.4994 34.668C29.4994 34.266 29.6434 33.942 29.9314 33.696C30.2254 33.45 30.6904 33.327 31.3264 33.327H32.8294V33.039C32.8294 32.631 32.7154 32.322 32.4874 32.112C32.2594 31.896 31.9264 31.788 31.4884 31.788C31.1884 31.788 30.9004 31.839 30.6244 31.941C30.3484 32.037 30.1114 32.172 29.9134 32.346L29.6254 31.869C29.8654 31.665 30.1534 31.509 30.4894 31.401C30.8254 31.287 31.1794 31.23 31.5514 31.23ZM31.3264 35.541C31.6864 35.541 31.9954 35.46 32.2534 35.298C32.5114 35.13 32.7034 34.89 32.8294 34.578V33.804H31.3444C30.5344 33.804 30.1294 34.086 30.1294 34.65C30.1294 34.926 30.2344 35.145 30.4444 35.307C30.6544 35.463 30.9484 35.541 31.3264 35.541ZM35.204 29.322H35.843V36H35.204V29.322Z" fill="black"/>
</svg>
