<svg width="56" height="58" viewBox="0 0 56 58" fill="none" xmlns="http://www.w3.org/2000/svg">
<path d="M4.86914 4H51.0567V35.8206L28.4761 52L4.86914 35.8206V4Z" fill="#2BA782" stroke="#2BA782"/>
<path d="M11.0276 34.3548V27H44.8985V34.3548L28.4762 46L11.0276 34.3548Z" fill="white" stroke="white"/>
<path d="M1.79006 0.999998L54.136 1L54.136 37.8987L28.4222 56L1.79006 37.8987L1.79006 0.999998Z" stroke="#434344" stroke-width="2"/>
<path d="M15.9642 12.7C16.7682 12.7 17.3982 12.892 17.8542 13.276C18.3102 13.66 18.5382 14.188 18.5382 14.86C18.5382 15.532 18.3102 16.06 17.8542 16.444C17.3982 16.822 16.7682 17.011 15.9642 17.011H14.2722V19H13.6062V12.7H15.9642ZM15.9462 16.426C16.5702 16.426 17.0472 16.291 17.3772 16.021C17.7072 15.745 17.8722 15.358 17.8722 14.86C17.8722 14.35 17.7072 13.96 17.3772 13.69C17.0472 13.414 16.5702 13.276 15.9462 13.276H14.2722V16.426H15.9462ZM20.3322 15.193C20.4822 14.875 20.7042 14.635 20.9982 14.473C21.2982 14.311 21.6672 14.23 22.1052 14.23V14.851L21.9522 14.842C21.4542 14.842 21.0642 14.995 20.7822 15.301C20.5002 15.607 20.3592 16.036 20.3592 16.588V19H19.7202V14.266H20.3322V15.193ZM25.1533 19.045C24.6973 19.045 24.2863 18.943 23.9203 18.739C23.5543 18.529 23.2663 18.241 23.0563 17.875C22.8463 17.509 22.7413 17.095 22.7413 16.633C22.7413 16.171 22.8463 15.757 23.0563 15.391C23.2663 15.025 23.5543 14.74 23.9203 14.536C24.2863 14.332 24.6973 14.23 25.1533 14.23C25.6093 14.23 26.0203 14.332 26.3863 14.536C26.7523 14.74 27.0373 15.025 27.2413 15.391C27.4513 15.757 27.5563 16.171 27.5563 16.633C27.5563 17.095 27.4513 17.509 27.2413 17.875C27.0373 18.241 26.7523 18.529 26.3863 18.739C26.0203 18.943 25.6093 19.045 25.1533 19.045ZM25.1533 18.478C25.4893 18.478 25.7893 18.403 26.0533 18.253C26.3233 18.097 26.5333 17.878 26.6833 17.596C26.8333 17.314 26.9083 16.993 26.9083 16.633C26.9083 16.273 26.8333 15.952 26.6833 15.67C26.5333 15.388 26.3233 15.172 26.0533 15.022C25.7893 14.866 25.4893 14.788 25.1533 14.788C24.8173 14.788 24.5143 14.866 24.2443 15.022C23.9803 15.172 23.7703 15.388 23.6143 15.67C23.4643 15.952 23.3893 16.273 23.3893 16.633C23.3893 16.993 23.4643 17.314 23.6143 17.596C23.7703 17.878 23.9803 18.097 24.2443 18.253C24.5143 18.403 24.8173 18.478 25.1533 18.478ZM31.3539 18.712C31.2339 18.82 31.0839 18.904 30.9039 18.964C30.7299 19.018 30.5469 19.045 30.3549 19.045C29.9109 19.045 29.5689 18.925 29.3289 18.685C29.0889 18.445 28.9689 18.106 28.9689 17.668V14.806H28.1229V14.266H28.9689V13.231H29.6079V14.266H31.0479V14.806H29.6079V17.632C29.6079 17.914 29.6769 18.13 29.8149 18.28C29.9589 18.424 30.1629 18.496 30.4269 18.496C30.5589 18.496 30.6849 18.475 30.8049 18.433C30.9309 18.391 31.0389 18.331 31.1289 18.253L31.3539 18.712ZM36.4721 16.831H32.5121C32.5481 17.323 32.7371 17.722 33.0791 18.028C33.4211 18.328 33.8531 18.478 34.3751 18.478C34.6691 18.478 34.9391 18.427 35.1851 18.325C35.4311 18.217 35.6441 18.061 35.8241 17.857L36.1841 18.271C35.9741 18.523 35.7101 18.715 35.3921 18.847C35.0801 18.979 34.7351 19.045 34.3571 19.045C33.8711 19.045 33.4391 18.943 33.0611 18.739C32.6891 18.529 32.3981 18.241 32.1881 17.875C31.9781 17.509 31.8731 17.095 31.8731 16.633C31.8731 16.171 31.9721 15.757 32.1701 15.391C32.3741 15.025 32.6501 14.74 32.9981 14.536C33.3521 14.332 33.7481 14.23 34.1861 14.23C34.6241 14.23 35.0171 14.332 35.3651 14.536C35.7131 14.74 35.9861 15.025 36.1841 15.391C36.3821 15.751 36.4811 16.165 36.4811 16.633L36.4721 16.831ZM34.1861 14.779C33.7301 14.779 33.3461 14.926 33.0341 15.22C32.7281 15.508 32.5541 15.886 32.5121 16.354H35.8691C35.8271 15.886 35.6501 15.508 35.3381 15.22C35.0321 14.926 34.6481 14.779 34.1861 14.779ZM37.7818 14.266H38.4208V19H37.7818V14.266ZM38.1058 13.231C37.9738 13.231 37.8628 13.186 37.7728 13.096C37.6828 13.006 37.6378 12.898 37.6378 12.772C37.6378 12.652 37.6828 12.547 37.7728 12.457C37.8628 12.367 37.9738 12.322 38.1058 12.322C38.2378 12.322 38.3488 12.367 38.4388 12.457C38.5288 12.541 38.5738 12.643 38.5738 12.763C38.5738 12.895 38.5288 13.006 38.4388 13.096C38.3488 13.186 38.2378 13.231 38.1058 13.231ZM42.6108 14.23C43.2048 14.23 43.6758 14.404 44.0238 14.752C44.3778 15.094 44.5548 15.595 44.5548 16.255V19H43.9158V16.318C43.9158 15.826 43.7928 15.451 43.5468 15.193C43.3008 14.935 42.9498 14.806 42.4938 14.806C41.9838 14.806 41.5788 14.959 41.2788 15.265C40.9848 15.565 40.8378 15.982 40.8378 16.516V19H40.1988V14.266H40.8108V15.139C40.9848 14.851 41.2248 14.629 41.5308 14.473C41.8428 14.311 42.2028 14.23 42.6108 14.23Z" fill="black"/>
<path d="M30.152 32.266V36.424C30.152 37.228 29.954 37.822 29.558 38.206C29.168 38.596 28.577 38.791 27.785 38.791C27.347 38.791 26.93 38.725 26.534 38.593C26.144 38.467 25.826 38.29 25.58 38.062L25.904 37.576C26.132 37.78 26.408 37.939 26.732 38.053C27.062 38.167 27.407 38.224 27.767 38.224C28.367 38.224 28.808 38.083 29.09 37.801C29.372 37.525 29.513 37.093 29.513 36.505V35.902C29.315 36.202 29.054 36.43 28.73 36.586C28.412 36.742 28.058 36.82 27.668 36.82C27.224 36.82 26.819 36.724 26.453 36.532C26.093 36.334 25.808 36.061 25.598 35.713C25.394 35.359 25.292 34.96 25.292 34.516C25.292 34.072 25.394 33.676 25.598 33.328C25.808 32.98 26.093 32.71 26.453 32.518C26.813 32.326 27.218 32.23 27.668 32.23C28.07 32.23 28.433 32.311 28.757 32.473C29.081 32.635 29.342 32.869 29.54 33.175V32.266H30.152ZM27.731 36.253C28.073 36.253 28.382 36.181 28.658 36.037C28.934 35.887 29.147 35.68 29.297 35.416C29.453 35.152 29.531 34.852 29.531 34.516C29.531 34.18 29.453 33.883 29.297 33.625C29.147 33.361 28.934 33.157 28.658 33.013C28.388 32.863 28.079 32.788 27.731 32.788C27.389 32.788 27.08 32.86 26.804 33.004C26.534 33.148 26.321 33.352 26.165 33.616C26.015 33.88 25.94 34.18 25.94 34.516C25.94 34.852 26.015 35.152 26.165 35.416C26.321 35.68 26.534 35.887 26.804 36.037C27.08 36.181 27.389 36.253 27.731 36.253Z" fill="black"/>
</svg>
